<svg width="45" height="44" viewBox="0 0 45 44" fill="none" xmlns="http://www.w3.org/2000/svg">
<g clip-path="url(#clip0_10_432)">
<g clip-path="url(#clip1_10_432)">
<g clip-path="url(#clip2_10_432)">
<mask id="mask0_10_432" style="mask-type:luminance" maskUnits="userSpaceOnUse" x="0" y="0" width="45" height="44">
<path d="M44.5 0H0.5V44H44.5V0Z" fill="white"/>
</mask>
<g mask="url(#mask0_10_432)">
<path d="M38.9912 2.06135H30.2829C27.9791 0.752813 25.3176 0 22.4829 0C13.7574 0 6.658 7.09271 6.658 15.8125H1.88187C1.50116 15.8125 1.13191 15.9718 0.870454 16.2525C0.61244 16.5275 0.478273 16.8988 0.503501 17.2723C0.645695 19.4368 1.10897 21.5268 1.84288 23.4988V42.625C1.84288 43.3835 2.45982 44 3.21896 44H41.7479C42.507 44 43.124 43.3835 43.124 42.625V23.4438C44.0161 21.0398 44.5001 18.4628 44.5001 15.8125C44.5001 11.008 42.9783 6.44302 40.0978 2.61135C39.8398 2.2676 39.4246 2.06135 38.9912 2.06135ZM38.9969 3.4375C39.3329 3.88552 39.6505 4.34385 39.9475 4.8125H33.8355C33.3596 4.32208 32.8527 3.8626 32.3172 3.4375H38.9969ZM31.8092 39.875H13.1565L18.1872 22H26.7774L31.8081 39.875H31.8092ZM34.3297 41.25L34.6737 42.625H10.292L10.636 41.25H34.3297ZM28.103 21.6276C27.9367 21.0375 27.392 20.625 26.7785 20.625H18.1884C17.5737 20.625 17.0302 21.0375 16.8639 21.6276L16.404 23.2627C14.1691 21.442 12.8515 18.7275 12.8515 15.8125C12.8515 10.505 17.1724 6.1875 22.484 6.1875C27.7957 6.1875 32.1165 10.505 32.1165 15.8125C32.1165 17.9151 31.4503 19.9123 30.1912 21.5875C29.963 21.8911 30.0237 22.322 30.3276 22.55C30.6315 22.7769 31.0627 22.7161 31.2909 22.4125C32.7312 20.4978 33.4926 18.2142 33.4926 15.8114C33.4926 10.9736 30.346 6.86354 25.9941 5.39458C27.2498 4.76896 28.1672 3.81677 28.5169 2.7099C33.4754 4.99927 36.9328 10.0031 36.9328 15.8114C36.9328 20.9034 34.2747 25.5624 29.9458 28.1726L28.103 21.6276ZM27.2338 2.19313C26.8657 3.65406 24.8428 4.8125 22.4829 4.8125C20.1229 4.8125 18.1001 3.65406 17.732 2.19313C19.2227 1.67292 20.8167 1.375 22.4829 1.375C24.1491 1.375 25.743 1.67292 27.2338 2.19313ZM16.4499 2.71104C16.7997 3.81792 17.7171 4.76896 18.9727 5.39573C14.6209 6.86469 11.4743 10.9748 11.4743 15.8125C11.4743 19.3451 13.1577 22.6268 15.9993 24.6973L15.0211 28.1738C10.6922 25.5635 8.03407 20.9046 8.03407 15.8125C8.03407 10.0054 11.4915 5.00042 16.4499 2.71104ZM6.72451 17.1875C6.76464 17.6504 6.82656 18.1088 6.90684 18.5625H2.01833C1.9587 18.1088 1.91054 17.6493 1.88072 17.1875H6.72451ZM3.21896 26.5031C5.18904 30.0449 8.13957 33.0264 11.8309 35.0705C11.9364 35.129 12.0499 35.1565 12.1623 35.1565C12.4043 35.1565 12.6393 35.0281 12.7655 34.8013C12.9501 34.469 12.8297 34.0507 12.496 33.8674C7.13045 30.8974 3.43569 25.8122 2.25112 19.9375H7.20728C8.28864 23.9536 10.9284 27.4186 14.6369 29.5373L11.7265 39.875H10.0982C9.78283 39.875 9.50762 40.0893 9.43079 40.3964L8.87233 42.625H3.21781V26.5031H3.21896ZM41.7491 42.625H36.0945L35.5361 40.3964C35.4592 40.0893 35.184 39.875 34.8687 39.875H33.2403L32.0431 35.6217C36.2207 33.605 39.5794 30.3703 41.7491 26.4493V42.625ZM31.6636 34.2753L30.3311 29.5373C35.2632 26.7197 38.3089 21.5165 38.3089 15.8125C38.3089 12.1928 37.083 8.85615 35.0269 6.1875H40.7445C42.3075 9.13458 43.1251 12.4082 43.1251 15.8125C43.1251 23.65 38.6483 30.8023 31.6636 34.2753Z" fill="#0FAC73"/>
<path d="M25.2349 23.375H19.7306C19.4026 23.375 19.1205 23.6065 19.0563 23.9273L18.3683 27.3648C18.3281 27.5676 18.3798 27.7761 18.5105 27.9354C18.6412 28.0947 18.8361 28.1864 19.0426 28.1864H25.9229C26.1293 28.1864 26.3243 28.0935 26.455 27.9354C26.5857 27.7761 26.6385 27.5665 26.5972 27.3648L25.9092 23.9273C25.845 23.6065 25.5629 23.375 25.2349 23.375ZM19.882 26.8125L20.2948 24.75H24.6707L25.0835 26.8125H19.882Z" fill="#0FAC73"/>
<path d="M10.7862 13.75C10.7862 14.1293 10.4778 14.4375 10.0982 14.4375C9.71863 14.4375 9.41016 14.1293 9.41016 13.75C9.41016 13.3707 9.71863 13.0625 10.0982 13.0625C10.4778 13.0625 10.7862 13.3707 10.7862 13.75Z" fill="#0FAC73"/>
<path d="M10.7862 16.5C10.7862 16.8793 10.4778 17.1875 10.0982 17.1875C9.71863 17.1875 9.41016 16.8793 9.41016 16.5C9.41016 16.1207 9.71863 15.8125 10.0982 15.8125C10.4778 15.8125 10.7862 16.1207 10.7862 16.5Z" fill="#0FAC73"/>
<path d="M35.5555 13.75C35.5555 14.1293 35.247 14.4375 34.8675 14.4375C34.4879 14.4375 34.1794 14.1293 34.1794 13.75C34.1794 13.3707 34.4879 13.0625 34.8675 13.0625C35.247 13.0625 35.5555 13.3707 35.5555 13.75Z" fill="#0FAC73"/>
<path d="M35.5555 16.5C35.5555 16.8793 35.247 17.1875 34.8675 17.1875C34.4879 17.1875 34.1794 16.8793 34.1794 16.5C34.1794 16.1207 34.4879 15.8125 34.8675 15.8125C35.247 15.8125 35.5555 16.1207 35.5555 16.5Z" fill="#0FAC73"/>
</g>
</g>
</g>
</g>
<defs>
<clipPath id="clip0_10_432">
<rect width="44" height="44" fill="white" transform="translate(0.5)"/>
</clipPath>
<clipPath id="clip1_10_432">
<rect width="44" height="44" fill="white" transform="translate(0.5)"/>
</clipPath>
<clipPath id="clip2_10_432">
<rect width="44" height="44" fill="white" transform="translate(0.5)"/>
</clipPath>
</defs>
</svg>
