<svg width="41" height="58" viewBox="0 0 41 58" fill="none" xmlns="http://www.w3.org/2000/svg">
<g clip-path="url(#clip0_10_464)">
<g clip-path="url(#clip1_10_464)">
<g clip-path="url(#clip2_10_464)">
<mask id="mask0_10_464" style="mask-type:luminance" maskUnits="userSpaceOnUse" x="0" y="0" width="41" height="58">
<path d="M40.5 0.5H0.5V57.1667H40.5V0.5Z" fill="white"/>
</mask>
<g mask="url(#mask0_10_464)">
<path d="M19.0105 5.80745H19.6367V6.42708C19.6367 6.90525 20.0193 7.28892 20.5 7.28892C20.9808 7.28892 21.3665 6.90525 21.3665 6.42708V5.80745H21.8945C22.3752 5.80745 22.761 5.42378 22.761 4.9456C22.761 4.46742 22.3752 4.13382 21.8945 4.13382H21.2684V3.51106C21.2684 3.03288 20.8858 2.65234 20.405 2.65234C19.9242 2.65234 19.5385 3.03288 19.5385 3.51106V4.13382H19.0105C18.5298 4.13382 18.144 4.51436 18.144 4.99254C18.144 5.47072 18.5298 5.80745 19.0105 5.80745Z" fill="#0FAC73"/>
<path d="M27.6171 37.6077C27.2785 37.5607 26.8959 37.5607 26.5574 37.5607C26.3673 37.5607 25.9344 37.4161 25.8866 36.9849C27.9046 36.8434 31.365 36.1262 35.885 33.6376C36.1254 33.4962 36.3186 33.2064 36.3186 32.9204V19.0995C36.3186 13.6975 34.4906 9.44144 30.9824 6.66625L32.3265 1.55087C32.4247 1.07269 32.1843 0.5 31.5104 0.5H9.39475C8.91399 0.5 8.43323 0.928108 8.57859 1.55087C8.91399 2.84082 9.97053 6.66625 9.97053 6.66625C6.463 9.39387 4.63435 13.6975 4.63435 19.0995V32.8728C4.63435 33.1588 4.77971 33.4455 5.06791 33.5901C9.54074 36.1256 13.0011 36.7928 15.0695 36.9373C15.0191 37.2709 14.7309 37.51 14.3955 37.51C14.0098 37.51 13.2887 37.5601 13.2408 37.5601C5.88407 38.1328 0.452866 44.1576 0.500061 51.3309V56.3048C0.500061 56.783 0.885802 57.1166 1.36656 57.1667H39.6367C40.1175 57.1667 40.4529 56.783 40.5001 56.3048V51.3778C40.4529 46.5015 37.0869 38.3719 27.6171 37.6077ZM20.4529 43.727L15.2589 39.0428C16.1732 38.7061 16.7521 37.8474 16.7521 36.8434V35.3113C19.1559 36.1262 21.8001 36.1262 24.2046 35.3113V36.8434C24.2046 37.7998 24.7803 38.6585 25.694 39.0428L20.4529 43.727ZM10.2612 19.7223C16.4136 19.1496 21.028 17.476 24.3461 14.6069L24.3933 14.6538C26.2692 17.0923 27.5183 18.7659 30.7414 19.4832V24.0735C30.7414 29.6701 26.1742 34.2604 20.4994 34.2604C14.8247 34.2604 10.2606 29.7177 10.2606 24.0735L10.2612 19.7223ZM25.8866 35.2637V34.5934C29.8749 32.5862 32.3769 28.5216 32.3769 24.0728V19.7692C33.0477 19.8669 33.7688 19.9138 34.6353 19.9138V32.394C30.6942 34.4989 27.6643 35.1191 25.8866 35.2637ZM30.4035 2.17362L28.3854 9.6799C25.8362 8.72355 23.1914 8.19842 20.4522 8.19842C17.713 8.19842 15.0689 8.72355 12.5191 9.6799L10.5016 2.17362H30.4035ZM10.4513 8.43751L11.1724 11.0206C11.3178 11.4487 11.8464 11.7848 12.3271 11.5457C14.8763 10.4447 17.6633 9.82448 20.4529 9.82448C23.2424 9.87142 26.0294 10.4441 28.5786 11.5457C29.1544 11.7848 29.6351 11.3535 29.7333 11.0206L30.4544 8.43751C33.0005 10.7308 34.3955 14.0786 34.5887 18.2408C30.7426 18.2408 28.386 17.7626 25.0679 12.8832C24.8747 12.5972 24.2996 12.3581 23.8188 12.7887C20.2131 16.375 14.4434 18.1432 6.31764 18.2408C6.51082 14.0786 7.90465 10.7314 10.4513 8.43751ZM6.31701 19.9144C7.08534 19.9144 7.85745 19.8675 8.57859 19.8675V24.121C8.57859 28.5698 11.0774 32.6343 15.0689 34.6416V35.3119C13.2408 35.1705 10.2613 34.5477 6.31701 32.3953V19.9144ZM2.13553 51.3778C2.13553 45.2116 6.79777 39.9986 13.0005 39.3282L19.2031 44.9218L17.1819 46.7876C16.9919 46.9321 16.8944 47.1712 16.8944 47.4103V55.54H2.13553V51.3778ZM38.7696 55.493H18.577V47.7445L27.9046 39.3288H27.9997C28.7718 39.4234 29.4929 39.5679 30.2141 39.807H30.2613C35.3571 41.3861 38.8174 46.0709 38.8174 51.3785L38.7696 55.493Z" fill="#0FAC73"/>
</g>
</g>
</g>
</g>
<defs>
<clipPath id="clip0_10_464">
<rect width="40" height="57" fill="white" transform="translate(0.5 0.5)"/>
</clipPath>
<clipPath id="clip1_10_464">
<rect width="40" height="57" fill="white" transform="translate(0.5 0.5)"/>
</clipPath>
<clipPath id="clip2_10_464">
<rect width="40" height="57" fill="white" transform="translate(0.5 0.5)"/>
</clipPath>
</defs>
</svg>
