<svg width="47" height="38" viewBox="0 0 47 38" fill="none" xmlns="http://www.w3.org/2000/svg">
<path d="M44.2934 5.92566L11.3471 0.0486784C9.90245 -0.21127 8.50089 0.798574 8.25052 2.23488L6.12781 14.4081H3.09708C1.66557 14.4081 0.5 15.5737 0.5 17.0052V35.2495C0.5 36.681 1.66438 37.8465 3.09708 37.8465H36.701C38.1338 37.8465 39.2981 36.681 39.2981 35.2495V28.8346C40.2601 29.0059 41.1896 29.2084 42.0797 28.6765C42.7469 28.2764 43.2261 27.5876 43.3603 26.8209L46.4581 9.04503C46.7132 7.58357 45.7417 6.18441 44.2922 5.92566H44.2934ZM9.71198 2.49003C9.82339 1.85274 10.4415 1.39394 11.086 1.50894L44.0335 7.38592C44.6804 7.50092 45.1128 8.13102 44.9978 8.78868L44.4863 11.7236L9.19927 5.42972L9.71198 2.49003ZM37.8151 35.2483C37.8151 35.8616 37.3156 36.3611 36.7022 36.3611H3.09708C2.48375 36.3611 1.98422 35.8616 1.98422 35.2483V17.0052C1.98422 16.3919 2.48375 15.8923 3.09708 15.8923H36.701C37.3156 15.8923 37.8139 16.3919 37.8139 17.0052V35.2495L37.8151 35.2483ZM41.9 26.5646C41.6688 27.8847 40.2038 27.4882 39.2993 27.3264V17.0052C39.2993 15.5737 38.1349 14.4081 36.7022 14.4081H7.63479L8.94411 6.89118L11.0932 7.27451L44.2299 13.185L41.8988 26.5646H41.9Z" fill="#0FAC73"/>
<path d="M17.9799 33.3956H13.7141C13.3045 33.3956 12.9714 33.0625 12.9714 32.6529C12.9714 32.2432 13.3045 31.9102 13.7141 31.9102H17.9799C18.3896 31.9102 18.7214 32.2432 18.7214 32.6529C18.7214 33.0625 18.3896 33.3956 17.9799 33.3956Z" fill="#0FAC73"/>
<path d="M9.87494 33.3956H5.60797C5.19828 33.3956 4.86646 33.0625 4.86646 32.6529C4.86646 32.2432 5.19828 31.9102 5.60797 31.9102H9.87374C10.2834 31.9102 10.6153 32.2432 10.6153 32.6529C10.6153 33.0625 10.2822 33.3956 9.87374 33.3956H9.87494Z" fill="#0FAC73"/>
<path d="M26.084 33.3956H21.8182C21.4085 33.3956 21.0767 33.0625 21.0767 32.6529C21.0767 32.2432 21.4085 31.9102 21.8182 31.9102H26.084C26.4936 31.9102 26.8267 32.2432 26.8267 32.6529C26.8267 33.0625 26.4948 33.3956 26.084 33.3956Z" fill="#0FAC73"/>
<path d="M34.1902 33.3956H29.9244C29.5147 33.3956 29.1829 33.0625 29.1829 32.6529C29.1829 32.2432 29.5147 31.9102 29.9244 31.9102H34.1902C34.5998 31.9102 34.9317 32.2432 34.9317 32.6529C34.9317 33.0625 34.5998 33.3956 34.1902 33.3956Z" fill="#0FAC73"/>
<path d="M11.7915 29.5469H6.41761C5.39459 29.5469 4.56323 28.7143 4.56323 27.6925V25.5614C4.56323 24.5396 5.39578 23.707 6.41761 23.707H11.7915C12.8145 23.707 13.6458 24.5396 13.6458 25.5614V27.6925C13.6458 28.7155 12.8133 29.5469 11.7915 29.5469ZM6.41761 25.1901C6.21396 25.1901 6.04745 25.3566 6.04745 25.5602V27.6913C6.04745 27.8961 6.21396 28.0627 6.41761 28.0627H11.7915C11.9963 28.0627 12.1628 27.8961 12.1628 27.6913V25.5602C12.1628 25.3554 11.9963 25.1901 11.7915 25.1901H6.41761Z" fill="#0FAC73"/>
</svg>
